<svg width="110" height="102" fill="none" xmlns="http://www.w3.org/2000/svg"><path fill-rule="evenodd" clip-rule="evenodd" d="M79.49 14H32.508C30.569 14 29 15.587 29 17.547v59.907a3.56 3.56 0 001.28 2.735 3.468 3.468 0 002.228.811H79.49c1.939 0 3.51-1.589 3.51-3.546V17.548C83 15.586 81.429 14 79.49 14z" fill="#4F4F4F"/><path fill-rule="evenodd" clip-rule="evenodd" d="M34 28.771V73.12c0 1.59 1.25 2.88 2.794 2.88h37.413C75.75 76 77 74.71 77 73.12V21.88c0-1.59-1.25-2.88-2.793-2.88H44.352L34 28.771z" fill="#fff"/><path fill-rule="evenodd" clip-rule="evenodd" d="M44.352 19v6.805a2.97 2.97 0 01-2.975 2.966H34L44.352 19z" fill="#C9C9C9"/><path fill-rule="evenodd" clip-rule="evenodd" d="M49.13 40.986h18.315v-1.629H49.13v1.629zM49.13 46.686h18.315v-1.629H49.13v1.629zM49.13 51.571h18.315v-1.628H49.13v1.628zM49.13 57.272h18.315v-1.629H49.13v1.629zM47.537 37.732h-3.981v4.072h3.981v-4.072zm-3.139 3.182h2.296v-2.292h-2.296v2.292zM47.537 43.295h-3.981v4.072h3.981v-4.072zm-3.139 3.182h2.296v-2.292h-2.296v2.292zM47.537 48.858h-3.981v4.072h3.981v-4.072zm-3.139 3.182h2.296v-2.292h-2.296v2.292zM47.537 54.422h-3.981v4.072h3.981V54.42zm-3.139 3.182h2.296V55.31h-2.296v2.293z" fill="#A0A0A0"/><path d="M44.785 39.17l1.77-3.07.983 1.024-2.695 4.676-2.083-3.202.936-1.1 1.089 1.672zM46.356 40.986l1.181.894-2.67 4.806-2.107-3.357 1.136-.97.9 1.433 1.56-2.806z" fill="#262626"/><path fill-rule="evenodd" clip-rule="evenodd" d="M56.502 16.292c-.612 0-1.106-.51-1.106-1.145 0-.634.494-1.148 1.105-1.148.609 0 1.105.514 1.105 1.148 0 .634-.496 1.145-1.105 1.145zm6.826-4.688h-4.114v-.789C59.214 9.26 58 8 56.502 8 55 8 53.787 9.26 53.787 10.815v.789h-4.114c-2.027 0-3.673 1.707-3.673 3.812V20h21v-4.584c0-2.105-1.645-3.812-3.672-3.812z" fill="#262626"/><path fill-rule="evenodd" clip-rule="evenodd" d="M29 53V63.977s.111.671.26 1.64l3.112-4.374a2.924 2.924 0 014.125-.673l.28.204c1.322.972 1.619 2.85.662 4.193l-8.47 11.905c-.153.414-.314.817-.476 1.203-.373.885-1.29 2.196-2.167 3.45-.949 1.357-1.852 2.648-1.968 3.26A98.57 98.57 0 0123.911 87L10 82.129l4.578-15.63c.071-.245.198-.469.37-.658 1.608-1.757 10.574-11.042 12.093-12.615a.74.74 0 01.537-.226H29zM73.947 67.957l.017.3a2.576 2.576 0 002.72 2.423l9.209-.528a2.577 2.577 0 002.425-2.719l-.017-.3a2.577 2.577 0 00-2.72-2.424l-9.21.528a2.577 2.577 0 00-2.424 2.72z" fill="#F1F1F1"/><path fill-rule="evenodd" clip-rule="evenodd" d="M72.032 63.998l.017.3a2.577 2.577 0 002.719 2.425l9.21-.529a2.577 2.577 0 002.425-2.719l-.018-.3a2.577 2.577 0 00-2.72-2.425l-9.21.53a2.575 2.575 0 00-2.423 2.718z" fill="#F1F1F1"/><path fill-rule="evenodd" clip-rule="evenodd" d="M69.675 60.12l.018.3a2.576 2.576 0 002.72 2.425l9.208-.53a2.576 2.576 0 002.425-2.718l-.017-.3a2.577 2.577 0 00-2.72-2.425L72.1 57.4a2.576 2.576 0 00-2.425 2.719z" fill="#F1F1F1"/><path fill-rule="evenodd" clip-rule="evenodd" d="M71.15 53.092l-.055.295a2.576 2.576 0 002.057 3.007l9.067 1.699a2.577 2.577 0 003.007-2.058l.055-.295a2.576 2.576 0 00-2.057-3.006l-9.067-1.7a2.577 2.577 0 00-3.007 2.058z" fill="#F1F1F1"/><path fill-rule="evenodd" clip-rule="evenodd" d="M76.87 59.908l-3.462-5.212-2.308-1.274 12.835-.4c.197.042 14.365 10.341 15.557 12.387.128.22.204.466.222.72l1.192 16.207-13.536 4.671s-.187-1.082-.44-2.254c-.324-1.501-2.721-8.218-3.09-10.178-.368-1.96-1.564-4.598-3.002-6.03-1.881-1.873-3.967-8.637-3.967-8.637z" fill="#F1F1F1"/><path fill-rule="evenodd" clip-rule="evenodd" d="M88.522 71.967l.247-.248a2.996 2.996 0 00-.01-4.237L76.723 55.497a2.998 2.998 0 00-4.239.01l-.246.247a2.996 2.996 0 00.01 4.237l12.036 11.985a2.996 2.996 0 004.238-.009z" fill="#F1F1F1"/><path fill-rule="evenodd" clip-rule="evenodd" d="M93.96 64.476l-.556 1.376c-.313.775.139 1.687 1.008 2.038l.04.016c.87.352 1.829.01 2.142-.766l.556-1.375c.312-.775-.138-1.687-1.009-2.039l-.04-.016c-.87-.351-1.828-.008-2.141.766z" fill="#BA3A26"/><path fill-rule="evenodd" clip-rule="evenodd" d="M61.95 54.774l-4.153-4.109 5.841-.071 1.383.559-1.69 4.18-1.382-.559z" fill="#FFECCC"/><path fill-rule="evenodd" clip-rule="evenodd" d="M57.797 50.666l1.876-.053-.563 1.394-1.313-1.341z" fill="#6A6A6A"/><path fill-rule="evenodd" clip-rule="evenodd" d="M61.92 54.233c.107-.263.444-.33.585-.68a.545.545 0 00.039-.159l.33.133 31.323 12.656-.563 1.393L62.31 54.921l-.307-.125s-.188-.3-.082-.563zM63.189 51.861c.141-.35-.053-.634.052-.896.107-.263.45-.349.45-.349l.308.124 31.324 12.656-.563 1.394-31.324-12.656-.33-.133a.534.534 0 00.083-.14z" fill="#FFD799"/><path fill-rule="evenodd" clip-rule="evenodd" d="M62.582 52.599c.15-.371.405-.381.566-.581l.33.133L94.761 64.79l-.563 1.393-31.283-12.639-.33-.133c.023-.257-.153-.442-.003-.812z" fill="#D47B00"/><path fill="#4F4F4F" d="M95.323 63.396l-1.689 4.18.798.322 1.689-4.18z"/><path d="M74.475 56.475a3.5 3.5 0 014.95 0l9.193 9.192a3.5 3.5 0 01-4.95 4.95l-9.193-9.192a3.5 3.5 0 010-4.95z" fill="#F1F1F1"/><path fill-rule="evenodd" clip-rule="evenodd" d="M7.271 82L25 88.394 20.293 102H0l7.271-20z" fill="#CCE2F0"/><path fill-rule="evenodd" clip-rule="evenodd" d="M7.024 81L26 87.47 23.976 93 5 86.53 7.024 81z" fill="#66A3C4"/><path fill-rule="evenodd" clip-rule="evenodd" d="M8.057 84.667a1 1 0 111.885.666 1 1 0 01-1.885-.666z" fill="#262626"/><path fill-rule="evenodd" clip-rule="evenodd" d="M102.728 82L85 88.394 89.707 102H110l-7.272-20z" fill="#CCE2F0"/><path fill-rule="evenodd" clip-rule="evenodd" d="M102.976 81L84 87.47 86.024 93 105 86.53 102.976 81z" fill="#66A3C4"/><path fill-rule="evenodd" clip-rule="evenodd" d="M101.943 84.667a1 1 0 10-1.886.668 1 1 0 001.886-.668z" fill="#262626"/></svg>